<?xml version="1.0" encoding="UTF-8"?>
<svg id="Layer_1" data-name="Layer 1" xmlns="http://www.w3.org/2000/svg" viewBox="0 0 577.62 227.54">
  <defs>
    <style>
      .cls-1 {
        fill: #fff;
      }

      .cls-2 {
        fill: #f4f4f4;
      }

      .cls-3 {
        fill: #e10613;
      }

      .cls-4 {
        fill: #fdfdfd;
      }

      .cls-5 {
        fill: #e00816;
      }
    </style>
  </defs>
  <path class="cls-4" d="M463.7,189.73l17.08,13.51c-2,.25-3.72.13-5.61.05l-16.01-12.48-.08,12.5c-1.52.09-2.81.13-4.27-.04v-36.56c1.46-.11,2.74-.1,4.28,0l.09,21.95,15.18-11.42c1.89-.11,3.61-.17,5.72.05l-16.37,12.45Z"/>
  <path class="cls-4" d="M503.14,203.37c-2.82.32-5.54.43-8.25-.15-3.09-.66-5.2-2.92-5.21-6.16l-.07-16.48-6.63-.1c-.19-1.16-.18-2.22,0-3.31l6.6-.06.12-6.24c1.37-.46,2.7-.7,4.11-1.02l.16,7.24,9.17.08c.13,1.11.14,2.13,0,3.29l-9.21.08.04,16.49c.01,4.56,6.4,3.1,9.15,3.27.18,1,.15,1.89.03,3.05Z"/>
  <path class="cls-4" d="M408.07,203.21c-1.49.33-2.81.15-4.25.06v-38.06c1.42-.22,2.79-.15,4.23-.04v38.04Z"/>
  <path class="cls-4" d="M514.6,203.22c-1.46.27-2.8.16-4.26.06v-26.07c1.49-.1,2.78-.11,4.23,0l.12,4.13c2.08-3.27,6.11-4.77,10.01-4.57.2,1.17.18,2.2.01,3.31-4.6-.11-9.99,2.43-10.02,7.51l-.09,15.63Z"/>
  <path class="cls-1" d="M392.29,180.34c-5.89-5.17-16.23-4.96-22.54-.61-5.85,4.04-7.51,11.89-3.33,17.75,6.1,8.56,22.82,8.7,29.07.52-1.27-.73-2.43-1.3-3.73-1.77-3.89,5.22-12.57,5.3-17.77,2.78-2.85-1.38-4.97-3.79-5.41-7l28.31-.03c.67-4.56-1.24-8.69-4.61-11.65ZM368.63,188.62c1.08-7.98,11.6-10.48,18.08-7.59,3.07,1.47,5.42,3.87,5.87,7.57l-23.95.02Z"/>
  <path class="cls-1" d="M443.17,180.2c-5.86-5.01-16.12-4.8-22.39-.47-5.84,4.04-7.5,11.9-3.33,17.75,6.11,8.57,22.83,8.69,29.08.52-1.26-.73-2.45-1.32-3.73-1.76-3.89,5.18-12.33,5.27-17.58,2.87-2.99-1.37-5.22-3.94-5.56-7.09l28.26-.02c.69-4.64-1.28-8.82-4.75-11.79ZM419.67,188.62c1.08-7.98,11.58-10.48,18.07-7.59,3.07,1.47,5.41,3.86,5.88,7.57l-23.95.03Z"/>
  <path class="cls-1" d="M556.21,180.8c-6.91-5.85-18.31-5.81-25.24.26-5.48,4.79-5.69,13.06-.36,18.04,6.7,6.26,18.05,6.47,25.05,1.06,3.11-2.41,4.97-5.74,5.09-9.44.13-3.91-1.49-7.35-4.53-9.92ZM552.96,197.46c-5.25,4.33-13.78,4.27-18.91-.42-3.83-3.5-4.09-9.32-.49-13.09,5.14-5.39,14.78-5.45,20.08-.29,4.05,3.95,3.69,10.21-.67,13.81Z"/>
  <g>
    <path class="cls-3" d="M560.59,156.99H162.35c-.24-1.64-.22-3.26-.02-4.98h398.17c.44,1.48.25,3.11.09,4.98Z"/>
    <g>
      <path class="cls-2" d="M132.43,76.5c1.54-.46,3.16-.15,4.99-.16v80.64s-120.53,0-120.53,0l-.03-98.63L80.95,24.89c.86,1.67,1.63,2.96,2.21,4.5L21.84,61.41l.02,90.54,110.55.02.02-75.47Z"/>
      <g>
        <path class="cls-4" d="M130.96,57.29c-.05-15.7-12.65-28.52-28.53-28.55-.15-1.75-.08-3.4-.04-5.22,18.65,0,33.79,15.15,33.73,33.71l-5.16.06Z"/>
        <path class="cls-4" d="M120.58,57.26c-.13-10.05-8.04-18.09-18.2-18.18v-5.19c12.83.02,23.28,10.31,23.37,23.28l-5.18.09Z"/>
        <path class="cls-4" d="M110.22,57.25c-.21-4.37-3.4-7.67-7.82-7.8v-5.16c7.17-.05,12.98,5.84,12.94,12.93l-5.12.04Z"/>
      </g>
      <g>
        <path class="cls-5" d="M113.98,142.8l-22.53.09-17.28-26.22-.03-16.1,6.5-.09c5.61-.08,9.76-4.89,9.74-10.31s-4.33-9.95-10.02-10.24l-12.48-.04-.03-17.13h12.81c12.71-.02,26.13,7.95,29.77,20.58,3.84,13.18-3.95,24.73-15.92,30.13l19.47,29.33Z"/>
        <polygon class="cls-5" points="62.97 142.86 43.08 142.89 43.08 62.72 62.97 62.71 62.97 142.86"/>
      </g>
    </g>
    <g>
      <path class="cls-1" d="M347.81,118.05l-10.42-2.81c-3.45-.93-9.62-3.12-10.1-7.13-.25-2.12.25-4.03,1.74-5.44,3.63-3.44,10.13-3.66,14.76-2.35,3.16.89,5.64,2.95,7.06,6.05l5.79-3.12c-1.92-3.73-4.99-6.42-8.84-8.06-8.04-3.41-19.83-2.49-25.35,5.15-2.77,3.84-3.03,9.31-.4,13.31,1.92,2.92,5,4.82,8.29,5.72l11.14,3.03c2.69.73,5.25,1.82,7.41,3.56,1.88,1.52,2.42,3.8,1.91,6.15-.43,1.96-1.91,3.7-4.11,4.61-7.49,3.07-18.77,1.68-22.26-6.68l-5.83,3.19c2.14,5.54,8.14,9.44,13.85,10.57,7.76,1.54,17.98.64,23.12-6.15,3.01-3.98,3.22-9.78.44-13.96-1.92-2.88-4.93-4.76-8.2-5.64Z"/>
      <path class="cls-1" d="M303.67,137.68c-3.1-.28-5.4-2.45-5.41-5.75l-.09-31.19,15.08-.02v-6.21s-15.06-.08-15.06-.08l-.06-13.55-6.87,1.92-.06,11.64-10.96.07-.06,6.15,11.03.09.14,31.76c.01,3.08,1.37,5.99,3.52,7.96,4.37,4,12.77,3.62,18.43,2.79l-.05-5.65c-3.31.03-6.36.34-9.58.06Z"/>
      <path class="cls-1" d="M558.21,137.62c-3.28.04-6.31.34-9.54.07-3.05-.26-5.45-2.36-5.46-5.63l-.08-31.32h15.12s-.06-6.24-.06-6.24l-15.03-.04-.05-13.55-6.87,1.86-.09,11.68-10.97.06-.03,6.18,11,.11.15,31.75c.02,3.34,1.58,6.41,4.01,8.37,4.41,3.55,12.53,3.18,17.97,2.37l-.04-5.65Z"/>
      <path class="cls-1" d="M503.36,102.26l-.19-7.73-6.92.02v48.71s6.93-.05,6.93-.05l.1-28.37c.03-9.6,7.2-14.81,16.46-14.86.25-2.04.08-4.09.09-6.18-6.79-.24-12.9,2.36-16.47,8.47Z"/>
      <path class="cls-1" d="M465.7,94.02c-5-1.04-10.02-.96-15.02.35-7.65,2.01-14.13,7.3-17.14,14.72-2.63,6.47-2.55,13.88.25,20.27,3.11,7.1,9.49,12.07,16.94,14,11.32,2.93,24.94.35,32.07-10.04l-6.1-3.34c-5.59,8.97-18.54,9.93-27.11,6.2-5.78-2.51-9.88-7.46-10.71-14.01l46.15-.03c1.78-12.67-6.79-25.5-19.32-28.11ZM438.89,115.85c.74-5.98,4.38-11.09,9.82-13.88,5.44-2.78,11.98-3.19,17.7-1.08,6.48,2.39,10.86,7.91,11.6,14.95h-39.12Z"/>
      <path class="cls-1" d="M413.16,94.53l-.12,9.37c-3.37-4.92-8.13-8.42-13.98-9.75-5.11-1.16-10.29-1.19-15.39.32-7.03,2.07-13.07,6.84-16.4,13.46-3.39,6.74-3.44,14.99-.11,21.72,5.03,10.15,15.62,15.47,26.72,14.78,7.86-.49,14.8-3.88,19.14-10.57l.13,9.42,6.95-.06v-48.67s-6.95,0-6.95,0ZM411.38,126.87c-3.48,7.19-10.67,11.29-18.76,11.35-8.11.06-15.35-3.89-18.98-11.02-2.63-5.15-2.62-11.45,0-16.6,3.63-7.13,10.91-11.04,18.83-11.03,7.94.01,15.24,3.98,18.82,11.17,2.49,5,2.53,11.09.09,16.12Z"/>
      <path class="cls-1" d="M246.98,93.3c-10.18.09-19.71,5.03-24.63,14.15-3.77,6.99-3.77,15.89,0,22.88,4.91,9.13,14.46,14.08,24.63,14.13,8.41.04,16.03-2.92,21.76-9.22,4.15-4.56,6.19-10.12,6.2-16.21,0-5.05-1.27-9.81-4.16-13.91-5.51-7.81-14.22-11.91-23.78-11.82ZM266.23,126.79c-3.55,7.43-10.95,11.41-18.95,11.42-7.99.02-15.34-3.97-18.92-11.21-2.52-5.1-2.49-11.33.09-16.4,3.63-7.13,10.91-11.04,18.83-11.04,8.08,0,15.53,4.14,19,11.54,2.28,4.86,2.33,10.7-.05,15.68Z"/>
      <path class="cls-1" d="M212.28,102.99c2.23-5.17,1.94-10.9-.36-16-3.88-7.2-11.06-11.94-19.37-11.95l-30.34-.04v68.28s7.39,0,7.39,0l.02-27.24,20.67-.03,17.13,27.23c2.73.04,5.43.19,8.38-.08l-17.85-28.04c6.46-1.81,11.71-6.05,14.33-12.13ZM169.62,109.53v-28.04s22.1-.01,22.1-.01c4.28-.07,8.06,1.6,10.97,4.66,5.21,5.45,4.99,14.16-.68,19.33-2.83,2.7-6.18,3.97-10.01,4.06h-22.37Z"/>
    </g>
  </g>
</svg>