<?xml version="1.0" encoding="UTF-8"?>
<svg id="Layer_1" data-name="Layer 1" xmlns="http://www.w3.org/2000/svg" viewBox="0 0 160 160">
  <defs>
    <style>
      .cls-1 {
        fill: #f4f4f4;
      }

      .cls-2 {
        fill: #fdfdfd;
      }

      .cls-3 {
        fill: #e00816;
      }
    </style>
  </defs>
  <path class="cls-1" d="M135.29,61.67c1.54-.46,3.16-.15,4.99-.16v80.64s-120.53,0-120.53,0l-.03-98.63L83.82,10.06c.86,1.67,1.63,2.96,2.21,4.5L24.7,46.58l.02,90.54,110.55.02.02-75.47Z"/>
  <g>
    <path class="cls-2" d="M133.82,42.46c-.05-15.7-12.65-28.52-28.53-28.55-.15-1.75-.08-3.4-.04-5.22,18.65,0,33.79,15.15,33.73,33.71l-5.16.06Z"/>
    <path class="cls-2" d="M123.45,42.43c-.13-10.05-8.04-18.09-18.2-18.18v-5.19c12.83.02,23.28,10.31,23.37,23.28l-5.18.09Z"/>
    <path class="cls-2" d="M113.08,42.42c-.21-4.37-3.4-7.67-7.82-7.8v-5.16c7.17-.05,12.98,5.84,12.94,12.93l-5.12.04Z"/>
  </g>
  <g>
    <path class="cls-3" d="M116.84,127.97l-22.53.09-17.28-26.22-.03-16.1,6.5-.09c5.61-.08,9.76-4.89,9.74-10.31s-4.33-9.95-10.02-10.24l-12.48-.04-.03-17.13h12.81c12.71-.02,26.13,7.95,29.77,20.58,3.84,13.18-3.95,24.73-15.92,30.13l19.47,29.33Z"/>
    <polygon class="cls-3" points="65.84 128.03 45.94 128.06 45.94 47.89 65.83 47.88 65.84 128.03"/>
  </g>
</svg>